<?xml version="1.0" encoding="utf-8"?>
<!-- Svg Vector Icons : http://www.onlinewebfonts.com/icon -->
<!DOCTYPE svg PUBLIC "-//W3C//DTD SVG 1.1//EN" "http://www.w3.org/Graphics/SVG/1.1/DTD/svg11.dtd">
<svg version="1.1" xmlns="http://www.w3.org/2000/svg" xmlns:xlink="http://www.w3.org/1999/xlink" x="0px" y="0px" viewBox="0 0 1000 1000" enable-background="new 0 0 1000 1000" xml:space="preserve">
<metadata> Svg Vector Icons : http://www.onlinewebfonts.com/icon </metadata>
<g><path d="M868,698.6H301.1c-13.2,0-24.5-9.4-26.9-22.4L162.5,68.7H37.4C22.3,68.7,10,56.4,10,41.3c0-15.1,12.3-27.4,27.4-27.4h147.9c13.2,0,24.6,9.4,26.9,22.4l111.7,607.5h544c15.1,0,27.4,12.3,27.4,27.4C895.4,686.3,883.1,698.6,868,698.6z"  fill="#156f96"/><path d="M832.7,564.3H282.3c-15.1,0-27.4-12.3-27.4-27.4s12.3-27.4,27.4-27.4h531.3l109.8-299.7H329.7c-15.1,0-27.4-12.3-27.4-27.4c0-15.1,12.3-27.4,27.4-27.4h632.9c8.9,0,17.3,4.4,22.5,11.7c5.1,7.3,6.3,16.7,3.3,25.1L858.5,546.4C854.5,557.2,844.2,564.3,832.7,564.3z"  fill="#156f96"/><path d="M341.4,986.1c-60,0-108.8-48.8-108.8-108.9c0-60,48.8-108.8,108.8-108.8c60,0,108.8,48.8,108.8,108.8C450.2,937.3,401.4,986.1,341.4,986.1z M341.4,823.2c-29.8,0-54.1,24.2-54.1,54c0,29.8,24.2,54.1,54.1,54.1c29.8,0,54.1-24.3,54.1-54.1C395.4,847.5,371.2,823.2,341.4,823.2z"  fill="#156f96"/><path d="M815.1,986.1c-60,0-108.8-48.8-108.8-108.9c0-60,48.8-108.8,108.8-108.8c60,0,108.9,48.8,108.9,108.8C924,937.3,875.2,986.1,815.1,986.1z M815.1,823.2c-29.8,0-54.1,24.2-54.1,54c0,29.8,24.2,54.1,54.1,54.1c29.8,0,54.1-24.3,54.1-54.1C869.2,847.5,845,823.2,815.1,823.2z" fill="#156f96"/></g>
</svg>