<?xml version="1.0" encoding="utf-8"?>
<!-- Svg Vector Icons : http://www.onlinewebfonts.com/icon -->
<!DOCTYPE svg PUBLIC "-//W3C//DTD SVG 1.1//EN" "http://www.w3.org/Graphics/SVG/1.1/DTD/svg11.dtd">
<svg version="1.1" xmlns="http://www.w3.org/2000/svg" xmlns:xlink="http://www.w3.org/1999/xlink" x="0px" y="0px" viewBox="0 0 1000 1000" enable-background="new 0 0 1000 1000" xml:space="preserve">
<metadata> Svg Vector Icons : http://www.onlinewebfonts.com/icon </metadata>
<g><path d="M151.6,118.9h696.9c24.1,0,32.7,98,32.7,98H118.9C118.9,216.9,127.5,118.9,151.6,118.9z M434.7,10h130.7c12,0,43.6,31.5,43.6,43.6c0,12-31.5,43.6-43.6,43.6H434.7c-12,0-43.6-31.5-43.6-43.6C391.1,41.5,422.6,10,434.7,10z M216.9,249.6h566.2c24.1,0,43.6,19.5,43.6,43.6l-43.6,653.3c0,24.1-19.5,43.6-43.6,43.6H260.4c-24.1,0-43.6-19.5-43.6-43.6l-43.6-653.3C173.3,269.1,192.8,249.6,216.9,249.6z M282.2,336.7l10.9,566.2h76.2l-10.9-566.2H282.2z M456.4,336.7v566.2h87.1V336.7H456.4z M641.6,336.7l-10.9,566.2h76.2l10.9-566.2H641.6z" fill="#ea6546"/></g>
</svg>