<?xml version="1.0" encoding="utf-8"?>
<!-- Svg Vector Icons : http://www.onlinewebfonts.com/icon -->
<!DOCTYPE svg PUBLIC "-//W3C//DTD SVG 1.1//EN" "http://www.w3.org/Graphics/SVG/1.1/DTD/svg11.dtd">
<svg version="1.1" xmlns="http://www.w3.org/2000/svg" xmlns:xlink="http://www.w3.org/1999/xlink" x="0px" y="0px" viewBox="0 0 1000 1000" enable-background="new 0 0 1000 1000" xml:space="preserve">
<metadata> Svg Vector Icons : http://www.onlinewebfonts.com/icon </metadata>
<g><path d="M621.6,10c-203.1,0-366,162.9-366,366c0,61.4,16.5,120.4,42.5,172.4l-255,255l0,0C24.2,822.3,10,850.7,10,881.4c0,59,47.2,108.6,108.6,108.6c30.7,0,56.7-11.8,77.9-33.1l0,0l255-255c52,28.3,108.6,42.5,172.4,42.5c203.1,0,366-162.9,366-366C987.6,175.3,822.3,10,621.6,10z M156.4,916.8c-9.4,9.4-23.6,16.5-37.8,16.5c-30.7,0-54.3-23.6-54.3-54.3c0-14.2,7.1-28.3,16.5-37.8l0,0l245.6-245.6c21.2,28.3,47.2,54.3,75.6,75.6L156.4,916.8z M621.6,683C453.9,683,317,546.1,317,378.4c0-167.7,137-304.6,304.6-304.6c167.7,0,304.6,137,304.6,304.6C926.2,546.1,789.3,683,621.6,683z" fill="#1190cb"/><path d="M621.6,163.5c-118.1,0-214.9,96.8-214.9,214.9c0,9.4,7.1,14.2,14.2,14.2c9.4,0,14.2-7.1,14.2-14.2c0-101.5,82.6-184.2,184.2-184.2c9.4,0,14.2-7.1,14.2-14.2C635.8,170.6,628.7,163.5,621.6,163.5z" fill="#1190cb"/></g>
</svg>