<?xml version="1.0" encoding="utf-8"?>
<!-- Svg Vector Icons : http://www.onlinewebfonts.com/icon -->
<!DOCTYPE svg PUBLIC "-//W3C//DTD SVG 1.1//EN" "http://www.w3.org/Graphics/SVG/1.1/DTD/svg11.dtd">
<svg version="1.1" xmlns="http://www.w3.org/2000/svg" xmlns:xlink="http://www.w3.org/1999/xlink" x="0px" y="0px" viewBox="0 0 1000 1000" enable-background="new 0 0 1000 1000" xml:space="preserve">
<metadata> Svg Vector Icons : http://www.onlinewebfonts.com/icon </metadata>
<g><g transform="translate(0.000000,511.000000) scale(0.100000,-0.100000)"><path d="M4513.8,4979.6c-504.5-128.4-1077.9-600.9-1288.9-1068.7c-123.9-266-206.4-633-206.4-908.2V2833l-550.4-18.4c-481.6-13.8-559.6-27.5-642.1-110.1c-87.1-87.1-114.7-330.2-389.9-3531.7C1271-2716.8,1138-4335.9,1138-4427.7c0-110,32.1-192.6,105.5-261.4L1349-4790h3646.4h3651l105.5,114.7l110.1,114.7L8554.7-1006C8389.5,943.3,8229,2585.4,8201.5,2640.4c-78,146.8-233.9,183.5-761.4,183.5h-477v174.3c0,284.4-128.4,779.7-256.8,1018.3c-174.3,316.5-555,665.1-917.3,834.8c-247.7,114.7-371.5,142.2-697.2,155.9C4871.6,5016.3,4614.7,5002.5,4513.8,4979.6z M5504.5,4209.1c426.6-188.1,724.7-646.7,724.7-1119.2v-266H4990.8H3752.4v247.7C3752.4,3988.9,4665.2,4580.6,5504.5,4209.1z M3027.7,1626.7c13.8-422,22.9-472.4,123.8-550.4c123.8-100.9,311.9-110.1,426.6-22.9c123.8,91.7,174.3,284.4,174.3,674.3V2090h1238.4h1238.4v-389.9c0-444.9,73.4-646.7,252.3-692.6c339.4-87.1,481.6,119.3,481.6,692.6V2090H7275h311.9L7830-785.8c133-1587,256.8-2976.8,266-3096l27.5-220.1H4995.4c-2541,0-3123.5,9.2-3123.5,59.6c0,32.1,114.7,1385.2,252.3,3004.3c137.6,1619.1,252.3,2985.9,252.3,3036.4c0,82.6,32.1,91.7,316.5,91.7h316.5L3027.7,1626.7z" fill="#1190cb"/></g></g>
</svg>