<?xml version="1.0" encoding="utf-8"?>
<!-- Svg Vector Icons : http://www.onlinewebfonts.com/icon -->
<!DOCTYPE svg PUBLIC "-//W3C//DTD SVG 1.1//EN" "http://www.w3.org/Graphics/SVG/1.1/DTD/svg11.dtd">
<svg version="1.1" xmlns="http://www.w3.org/2000/svg" xmlns:xlink="http://www.w3.org/1999/xlink" x="0px" y="0px" viewBox="0 0 1000 1000" enable-background="new 0 0 1000 1000" xml:space="preserve">
<metadata> Svg Vector Icons : http://www.onlinewebfonts.com/icon </metadata>
<g><path d="M990,196.2c-36.1,16-74.9,26.9-115.5,31.6c41.4-24.8,73.4-64.2,88.4-111.2c-38.8,23-81.9,39.8-127.6,48.8c-36.7-39-88.8-63.4-146.7-63.4c-111,0-201,90.1-201,201c0,15.8,1.8,31.2,5.1,45.7c-167-8.4-315.1-88.4-414.4-210.1C61.1,168.5,51,202.9,51,239.9c0,69.8,35.5,131.3,89.4,167.4c-33-1-64-10.1-91.1-25.2c0,0.8,0,1.6,0,2.5c0,97.4,69.3,178.7,161.2,197.1c-16.8,4.5-34.7,7-52.9,7c-12.9,0-25.6-1.2-37.7-3.7c25.6,79.8,99.9,138.1,187.7,139.7c-68.7,54-155.5,86-249.7,86c-16.2,0-32.2-1-48-2.9c89,57,194.7,90.3,308.1,90.3c369.7,0,572-306.3,572-572c0-8.6-0.2-17.4-0.6-26.1C928.9,271.9,962.9,236.6,990,196.2z" fill="#ffffff" /></g>
</svg>