<?xml version="1.0" encoding="utf-8"?>
<!-- Svg Vector Icons : http://www.onlinewebfonts.com/icon -->
<!DOCTYPE svg PUBLIC "-//W3C//DTD SVG 1.1//EN" "http://www.w3.org/Graphics/SVG/1.1/DTD/svg11.dtd">
<svg version="1.1" xmlns="http://www.w3.org/2000/svg" xmlns:xlink="http://www.w3.org/1999/xlink" x="0px" y="0px" viewBox="0 0 1000 1000" enable-background="new 0 0 1000 1000" xml:space="preserve">
<metadata> Svg Vector Icons : http://www.onlinewebfonts.com/icon </metadata>
<g><path d="M895.4,970.8l-106.5,0l-684.3,0c-52.1,0-94.6-41.9-94.6-93.3c0-150.7,124.3-273.3,277.1-273.3c18.7,0,33.8,14.9,33.8,33.3c0,18.4-15.1,33.3-33.8,33.3c-115.5,0-209.5,92.7-209.5,206.6c0,14.7,12.1,26.7,27,26.7h790.8c14.9,0,27.1-12,27.1-26.7c0-113.9-94-206.6-209.6-206.6c-18.7,0-33.8-14.9-33.8-33.3c0-18.4,15.1-33.3,33.8-33.3c152.8,0,277.1,122.6,277.1,273.3C990,928.9,947.5,970.8,895.4,970.8z M500,637.5c-139.8,0-253.5-136.5-253.5-304.2c0-79.9,25.4-155.3,71.7-212.3C366.3,61.8,430.9,29.2,500,29.2c139.8,0,253.5,136.4,253.5,304.1C753.5,501,639.8,637.5,500,637.5z M500,95.8c-102.5,0-185.9,106.5-185.9,237.5c0.1,131,83.5,237.5,185.9,237.5c102.5,0,185.9-106.5,185.9-237.5C685.9,202.4,602.5,95.8,500,95.8z" fill="#156f96"/></g>
</svg>